<svg id="レイヤー_1" data-name="レイヤー 1" xmlns="http://www.w3.org/2000/svg" viewBox="0 0 1024 768"><defs><style>.cls-1{fill:#4185d5;}.cls-2,.cls-3{fill:none;}.cls-2{stroke:#4185d5;}.cls-2,.cls-3,.cls-4{stroke-miterlimit:10;stroke-width:4px;}.cls-3,.cls-4{stroke:#e23a5b;}.cls-4,.cls-6{fill:#fff;}.cls-5{fill:#e23a5b;}</style></defs><title>アートボード 1</title><path class="cls-1" d="M140.5,161.43a32.29,32.29,0,1,0-32.29-32.29A32.29,32.29,0,0,0,140.5,161.43Zm22.6,8.07h-4.21a43.88,43.88,0,0,1-36.78,0H117.9A33.9,33.9,0,0,0,84,203.4v10.49A12.11,12.11,0,0,0,96.11,226h88.78A12.11,12.11,0,0,0,197,213.89V203.4A33.9,33.9,0,0,0,163.1,169.5Z"/><path class="cls-1" d="M610.28,115.71v90.58A14.72,14.72,0,0,1,595.57,221H303.83a14.72,14.72,0,0,1-14.71-14.71V177.61l-47.12-17,47.12-17V115.71A14.72,14.72,0,0,1,303.83,101H595.57A14.72,14.72,0,0,1,610.28,115.71Z"/><path class="cls-1" d="M140.5,565.43a32.29,32.29,0,1,0-32.29-32.29A32.29,32.29,0,0,0,140.5,565.43Zm22.6,8.07h-4.21a43.88,43.88,0,0,1-36.78,0H117.9A33.9,33.9,0,0,0,84,607.4v10.49A12.11,12.11,0,0,0,96.11,630h88.78A12.11,12.11,0,0,0,197,617.89V607.4A33.9,33.9,0,0,0,163.1,573.5Z"/><path class="cls-1" d="M610.28,519.71v90.58A14.72,14.72,0,0,1,595.57,625H303.83a14.72,14.72,0,0,1-14.71-14.71V581.61l-47.12-17,47.12-17V519.71A14.72,14.72,0,0,1,303.83,505H595.57A14.72,14.72,0,0,1,610.28,519.71Z"/><path class="cls-1" d="M820.79,329.14a32.29,32.29,0,1,0-32.29,32.29A32.29,32.29,0,0,0,820.79,329.14ZM732,403.4v10.49A12.11,12.11,0,0,0,744.11,426h88.78A12.11,12.11,0,0,0,845,413.89V403.4a33.9,33.9,0,0,0-33.9-33.9h-4.21a43.88,43.88,0,0,1-36.78,0H765.9A33.9,33.9,0,0,0,732,403.4Z"/><path class="cls-1" d="M318.72,315.71v90.58A14.72,14.72,0,0,0,333.43,421H625.17a14.72,14.72,0,0,0,14.71-14.71V377.61l47.12-17-47.12-17v-28A14.72,14.72,0,0,0,625.17,301H333.43A14.72,14.72,0,0,0,318.72,315.71Z"/><line class="cls-2" x1="464" y1="239" x2="464" y2="283"/><line class="cls-2" x1="464" y1="439" x2="464" y2="483"/><path class="cls-3" d="M841.06,539.25a34.25,34.25,0,1,0-34.25,34.25A34.24,34.24,0,0,0,841.06,539.25ZM746.87,618v11.14A12.85,12.85,0,0,0,759.72,642h94.19a12.84,12.84,0,0,0,12.84-12.84V618a36,36,0,0,0-36-36h-4.47a46.58,46.58,0,0,1-39,0h-4.47A36,36,0,0,0,746.87,618Z"/><path class="cls-4" d="M400.12,374.82,367.7,459.4a14.71,14.71,0,0,0,8.48,19L648.61,582.79a14.72,14.72,0,0,0,19-8.47l10.26-26.78,50.07,1L690,515.83l10-26.09a14.72,14.72,0,0,0-8.48-19L419.11,366.35A14.7,14.7,0,0,0,400.12,374.82Z"/><path class="cls-5" d="M807,709A125,125,0,1,1,932,584,125.15,125.15,0,0,1,807,709ZM732.51,534.78A89.29,89.29,0,0,0,856.22,658.49Zm149,98.44A89.29,89.29,0,0,0,757.78,509.51Z"/><path class="cls-6" d="M807,461A123,123,0,1,1,684,584,123,123,0,0,1,807,461m74.78,175.34A91.28,91.28,0,0,0,754.66,509.22L881.78,636.34m-74.86,38.92a91.16,91.16,0,0,0,52.42-16.48L732.22,531.66a91.27,91.27,0,0,0,74.7,143.6M807,457a127,127,0,1,0,89.8,37.2A126.15,126.15,0,0,0,807,457Zm-46,52.85a87.29,87.29,0,0,1,120.2,120.2L761,509.85Zm46,161.41A87.28,87.28,0,0,1,720,590.67,87.51,87.51,0,0,1,732.85,538l120.2,120.2a86.76,86.76,0,0,1-46.13,13.11Z"/></svg>